<svg width="32" height="32" viewBox="0 0 32 32" fill="none" xmlns="http://www.w3.org/2000/svg">
<g clip-path="url(#clip0_157_29)">
<mask id="mask0_157_29" style="mask-type:luminance" maskUnits="userSpaceOnUse" x="0" y="0" width="32" height="32">
<path d="M32 0H0V32H32V0Z" fill="white"/>
</mask>
<g mask="url(#mask0_157_29)">
<path d="M4.7607 14.6635C4.84187 14.6629 4.92304 14.6622 5.00667 14.6616C5.09728 14.6619 5.18789 14.6622 5.2785 14.6625C5.37434 14.6622 5.47019 14.6617 5.56603 14.6612C5.83009 14.6601 6.09414 14.6601 6.3582 14.6603C6.64272 14.6604 6.92723 14.6593 7.21175 14.6584C7.76942 14.6569 8.3271 14.6564 8.88477 14.6563C9.33793 14.6562 9.79109 14.6558 10.2443 14.6552C11.5282 14.6535 12.8121 14.6527 14.096 14.6528C14.1652 14.6528 14.2345 14.6528 14.3058 14.6528C14.4099 14.6528 14.4099 14.6528 14.516 14.6529C15.6401 14.6529 16.7643 14.6511 17.8884 14.6485C19.0418 14.6458 20.1952 14.6445 21.3486 14.6447C21.9965 14.6447 22.6444 14.6442 23.2923 14.6422C23.8439 14.6405 24.3954 14.6401 24.947 14.6414C25.2286 14.642 25.5101 14.642 25.7917 14.6403C26.0493 14.6389 26.3069 14.6391 26.5645 14.6408C26.6578 14.6411 26.7512 14.6407 26.8445 14.6397C27.5416 14.6324 27.5416 14.6324 27.7474 14.7679C27.8325 14.8669 27.8325 14.8669 27.9379 15.0626C27.9728 15.1211 28.0076 15.1795 28.0436 15.2398C28.0748 15.301 28.1061 15.3623 28.1383 15.4254C28.1745 15.4957 28.2107 15.5661 28.248 15.6385C28.2866 15.7148 28.3251 15.791 28.3637 15.8673C28.4043 15.9468 28.445 16.0263 28.4857 16.1059C28.9013 16.9195 29.3103 17.7365 29.716 18.5551C29.8003 18.7251 29.8854 18.8945 29.9725 19.063C30.001 19.1182 30.0294 19.1734 30.0587 19.2303C30.0833 19.2771 30.1078 19.324 30.1331 19.3723C30.2378 19.6165 30.2209 19.8295 30.1449 20.0782C30.03 20.2314 29.9236 20.2915 29.7504 20.3751C29.5819 20.3882 29.4295 20.393 29.2621 20.3868C29.1972 20.3855 29.1972 20.3855 29.1309 20.3842C29.0249 20.382 28.9189 20.3787 28.8129 20.3751C28.8131 20.4317 28.8132 20.4883 28.8134 20.5466C28.8176 21.9243 28.8207 23.3019 28.8226 24.6795C28.8236 25.3457 28.8249 26.0119 28.827 26.6782C28.8289 27.2589 28.8301 27.8395 28.8305 28.4202C28.8308 28.7277 28.8314 29.0351 28.8327 29.3426C28.834 29.6321 28.8344 29.9215 28.8341 30.211C28.8342 30.3172 28.8345 30.4233 28.8352 30.5295C28.8362 30.6747 28.836 30.8198 28.8354 30.965C28.8356 31.0462 28.8358 31.1273 28.836 31.211C28.8089 31.4772 28.75 31.6391 28.6254 31.8751C28.3992 32.0259 28.2965 32.0159 28.0272 32.0163C27.9851 32.0166 27.943 32.0168 27.8996 32.0171C27.7574 32.0177 27.6153 32.0175 27.4731 32.0172C27.3706 32.0175 27.268 32.0178 27.1655 32.0182C26.8829 32.0191 26.6003 32.0192 26.3177 32.0192C26.0133 32.0193 25.7088 32.0201 25.4044 32.0208C24.7383 32.0222 24.0722 32.0227 23.4062 32.023C22.9905 32.0232 22.5749 32.0237 22.1592 32.0241C21.0091 32.0253 19.8589 32.0264 18.7088 32.0265C18.6352 32.0265 18.5615 32.0266 18.4856 32.0266C18.3363 32.0266 18.1871 32.0266 18.0378 32.0266C17.9636 32.0266 17.8895 32.0267 17.8132 32.0267C17.7019 32.0267 17.7019 32.0267 17.5883 32.0267C16.3854 32.0269 15.1824 32.0286 13.9794 32.031C12.7453 32.0333 11.5111 32.0345 10.2769 32.0346C9.58356 32.0346 8.89026 32.0351 8.19696 32.0369C7.60671 32.0385 7.01648 32.0389 6.42624 32.038C6.12493 32.0375 5.82364 32.0376 5.52234 32.039C5.24668 32.0403 4.97106 32.0401 4.69541 32.0388C4.59552 32.0386 4.49562 32.0389 4.39574 32.0398C4.26021 32.0409 4.12483 32.0402 3.98931 32.0389C3.91397 32.0389 3.83862 32.039 3.76099 32.039C3.50604 31.9889 3.4132 31.8852 3.2504 31.6876C3.15534 31.4676 3.18022 31.224 3.18038 30.9875C3.18033 30.9422 3.18028 30.8968 3.18022 30.85C3.18012 30.6979 3.18046 30.5458 3.1808 30.3937C3.18082 30.2847 3.18081 30.1756 3.18078 30.0666C3.18076 29.7705 3.18113 29.4745 3.18156 29.1784C3.18195 28.869 3.18199 28.5596 3.18206 28.2502C3.18226 27.6643 3.18277 27.0784 3.1834 26.4925C3.1841 25.8255 3.18444 25.1585 3.18475 24.4915C3.18541 23.1193 3.18651 21.7472 3.1879 20.3751C3.09182 20.3783 3.09182 20.3783 2.99381 20.3817C2.90877 20.3834 2.82372 20.3851 2.73868 20.3868C2.69658 20.3884 2.65449 20.3899 2.61112 20.3916C2.33108 20.3957 2.16108 20.3579 1.9379 20.1876C1.77649 19.9724 1.79571 19.7614 1.8129 19.5001C1.87572 19.3431 1.93943 19.2061 2.01993 19.0592C2.06622 18.9707 2.11244 18.8823 2.1586 18.7938C2.19607 18.723 2.19607 18.723 2.23429 18.6507C2.37564 18.3799 2.50968 18.1055 2.64493 17.8316C2.70365 17.7135 2.7624 17.5954 2.8212 17.4774C2.911 17.297 3.00072 17.1166 3.09018 16.9361C4.21618 14.6645 4.21618 14.6645 4.7607 14.6635ZM5.1254 15.9376C4.58723 16.9589 4.58723 16.9589 4.05271 17.9822C4.01161 18.0612 3.97041 18.1401 3.92911 18.219C3.86783 18.3361 3.80688 18.4533 3.746 18.5706C3.71071 18.6384 3.67541 18.7061 3.63904 18.7758C3.55402 18.9266 3.55402 18.9266 3.5629 19.0626C6.80102 19.0626 10.0391 19.0626 13.3754 19.0626C13.6229 18.5676 13.8704 18.0726 14.1254 17.5626C14.5117 16.8291 14.5117 16.8291 14.6836 16.5099C14.7763 16.3228 14.8557 16.1295 14.9379 15.9376C11.6998 15.9376 8.46165 15.9376 5.1254 15.9376ZM17.0629 15.9376C17.3964 16.6417 17.7285 17.3387 18.0902 18.0274C18.1657 18.1719 18.2411 18.3163 18.3166 18.4608C18.349 18.5226 18.3814 18.5844 18.4148 18.6481C18.4864 18.7856 18.5561 18.924 18.6254 19.0626C21.8635 19.0626 25.1016 19.0626 28.4379 19.0626C28.3341 18.7469 28.3341 18.7469 28.2004 18.4531C28.1789 18.4112 28.1574 18.3692 28.1352 18.326C28.1008 18.2598 28.1008 18.2598 28.0656 18.1922C28.0415 18.1455 28.0175 18.0988 27.9927 18.0507C27.9419 17.9523 27.891 17.8539 27.84 17.7556C27.7628 17.6068 27.6859 17.4578 27.6092 17.3088C27.5595 17.2126 27.5098 17.1165 27.4601 17.0203C27.4262 16.9547 27.4262 16.9547 27.3916 16.8877C27.2252 16.5673 27.0509 16.2535 26.8754 15.9376C23.6373 15.9376 20.3991 15.9376 17.0629 15.9376ZM15.2504 18.1876C15.2252 18.239 15.2 18.2903 15.174 18.3433C15.0798 18.535 14.9851 18.7266 14.8903 18.9181C14.8494 19.0008 14.8087 19.0835 14.7681 19.1663C14.7095 19.2858 14.6504 19.405 14.5912 19.5242C14.5559 19.5959 14.5205 19.6676 14.4841 19.7415C14.2196 20.2187 14.2196 20.2187 13.9379 20.3126C13.8111 20.319 13.6841 20.3217 13.5571 20.3225C13.4378 20.3234 13.4378 20.3234 13.3162 20.3243C13.2275 20.3247 13.1389 20.325 13.0503 20.3254C12.9558 20.326 12.8613 20.3266 12.7667 20.3273C12.5133 20.329 12.2599 20.3303 12.0065 20.3316C11.7689 20.3328 11.5312 20.3344 11.2935 20.3359C10.5982 20.3402 9.90279 20.3439 9.20743 20.3477C6.87745 20.3613 6.87745 20.3613 4.5004 20.3751C4.5004 23.7988 4.5004 27.2226 4.5004 30.7501C8.06852 30.7501 11.6366 30.7501 15.3129 30.7501C15.3335 29.6157 15.3541 28.4813 15.3754 27.3126C15.5004 26.8751 15.5004 26.8751 15.6293 26.7501C15.8897 26.6614 16.1116 26.6752 16.3754 26.7501C16.5763 26.9259 16.5703 27.0373 16.6254 27.3126C16.646 28.447 16.6666 29.5813 16.6879 30.7501C20.256 30.7501 23.8241 30.7501 27.5004 30.7501C27.5004 27.3263 27.5004 23.9026 27.5004 20.3751C24.4086 20.3619 24.4086 20.3619 21.3168 20.3508C20.7191 20.3477 20.7191 20.3477 20.4394 20.346C20.2439 20.3449 20.0483 20.3443 19.8527 20.344C19.6033 20.3436 19.3539 20.3424 19.1045 20.3404C19.0129 20.3399 18.9214 20.3397 18.8298 20.3398C18.7061 20.3399 18.5824 20.3387 18.4588 20.3375C18.3548 20.3371 18.3548 20.3371 18.2487 20.3366C18.0378 20.3093 17.9208 20.2503 17.7504 20.1251C17.65 19.9798 17.65 19.9798 17.5646 19.8099C17.5329 19.7479 17.5012 19.6859 17.4685 19.622C17.4365 19.5573 17.4045 19.4926 17.3715 19.4259C17.3392 19.3623 17.307 19.2988 17.2737 19.2334C17.1817 19.0518 17.0909 18.8698 17.0004 18.6876C16.951 18.5888 16.9016 18.4901 16.8522 18.3914C16.8186 18.3242 16.785 18.2569 16.7504 18.1876C16.7298 18.1876 16.7091 18.1876 16.6879 18.1876C16.6875 18.2305 16.6872 18.2733 16.6868 18.3175C16.6828 18.7647 16.6775 19.2118 16.6715 19.6589C16.6693 19.8257 16.6677 19.9924 16.6662 20.1592C16.6641 20.3992 16.6609 20.6392 16.6574 20.8792C16.657 20.9535 16.6566 21.0278 16.6562 21.1044C16.6494 21.4891 16.635 21.7897 16.4379 22.1251C16.2081 22.2783 16.0173 22.3016 15.7504 22.2501C15.5304 22.0816 15.423 21.9575 15.3754 21.6876C15.3683 21.5712 15.3644 21.4545 15.3626 21.3379C15.3613 21.2679 15.3601 21.1978 15.3588 21.1256C15.3572 21.0127 15.3572 21.0127 15.3556 20.8975C15.3543 20.8202 15.353 20.7429 15.3517 20.6632C15.3483 20.4581 15.3452 20.253 15.3421 20.0479C15.339 19.8385 15.3355 19.629 15.3321 19.4195C15.3254 19.0089 15.319 18.5982 15.3129 18.1876C15.2923 18.1876 15.2716 18.1876 15.2504 18.1876Z" fill="#9E9E9E"/>
<path d="M19.8665 1.52328C20.9244 2.44281 21.6183 3.61408 21.962 4.97006C21.9773 5.0283 21.9926 5.08655 22.0083 5.14657C22.3542 6.769 22.0084 8.54186 21.126 9.9349C20.8767 10.3125 20.5893 10.6461 20.2745 10.9701C20.2355 11.0128 20.1966 11.0556 20.1565 11.0997C19.117 12.209 17.5336 12.8557 16.0289 12.9234C14.2475 12.9761 12.6107 12.4704 11.2972 11.2364C11.2241 11.1664 11.2241 11.1664 11.1495 11.0951C11.1027 11.0529 11.0558 11.0108 11.0076 10.9674C9.96904 9.99791 9.27371 8.48098 9.20418 7.06114C9.14737 5.01728 9.69389 3.29803 11.1143 1.79427C13.5337 -0.492596 17.322 -0.604935 19.8665 1.52328ZM11.7901 3.01302C10.7934 4.18889 10.4241 5.57197 10.5245 7.09506C10.675 8.40158 11.4096 9.62277 12.3995 10.4701C13.5978 11.3852 14.9695 11.7327 16.4566 11.568C17.7768 11.3442 19.0164 10.6019 19.804 9.51254C20.6197 8.3248 20.918 7.02764 20.7452 5.6036C20.4868 4.24587 19.7426 3.00181 18.5931 2.21444C16.3397 0.824941 13.6455 1.08072 11.7901 3.01302Z" fill="#9E9E9E"/>
<path d="M18.687 3.93741C18.8777 4.0369 18.9738 4.10831 19.0413 4.31583C19.085 4.57298 19.0931 4.69585 18.959 4.92936C18.7993 5.14182 18.6317 5.34313 18.4566 5.54288C18.3893 5.62046 18.3221 5.6981 18.2549 5.77579C18.222 5.81384 18.1891 5.85189 18.1552 5.89109C17.9802 6.09547 17.8115 6.30495 17.6419 6.51383C17.4531 6.74401 17.2604 6.97069 17.0675 7.19741C16.8844 7.41314 16.7047 7.6313 16.5269 7.85148C15.6636 8.91104 15.6636 8.91104 15.2808 8.97257C14.8883 8.96483 14.6523 8.68655 14.3745 8.43741C14.2647 8.34322 14.1543 8.2497 14.0439 8.15618C13.9304 8.05947 13.8178 7.96167 13.7053 7.86368C13.584 7.75845 13.4627 7.65936 13.3347 7.56192C13.1028 7.38284 12.973 7.26034 12.9214 6.96476C12.9133 6.68571 13.0023 6.5235 13.187 6.31241C13.4131 6.19937 13.629 6.19857 13.8745 6.24991C14.1057 6.39097 14.2991 6.56871 14.4995 6.74991C14.612 6.84593 14.7253 6.94102 14.8394 7.03507C14.8896 7.07769 14.9398 7.12031 14.9915 7.16422C15.0354 7.1925 15.0793 7.22078 15.1245 7.24991C15.3568 7.1725 15.4117 7.08178 15.562 6.89054C15.6118 6.82818 15.6616 6.76582 15.7129 6.70157C15.7393 6.66848 15.7656 6.63539 15.7928 6.60129C15.9291 6.43221 16.0698 6.2669 16.2105 6.10147C16.2392 6.06763 16.2679 6.03378 16.2975 5.99891C16.4151 5.86029 16.5328 5.72179 16.6505 5.58329C16.7383 5.48002 16.8259 5.3767 16.9136 5.27335C16.9419 5.23993 16.9703 5.20651 16.9995 5.17208C17.2333 4.8958 17.4619 4.61564 17.6887 4.33365C18.0077 3.95532 18.1802 3.82382 18.687 3.93741Z" fill="#9E9E9E"/>
<path d="M7.20022 27.3004C7.32258 27.2989 7.32258 27.2989 7.4474 27.2973C7.5369 27.2966 7.6264 27.2959 7.7159 27.2953C7.7609 27.295 7.8059 27.2947 7.85227 27.2943C8.09051 27.2926 8.32874 27.2914 8.56698 27.2905C8.81289 27.2895 9.05875 27.2867 9.30464 27.2835C9.49386 27.2814 9.68307 27.2807 9.8723 27.2803C9.96293 27.2799 10.0536 27.279 10.1442 27.2775C10.2712 27.2755 10.3982 27.2757 10.5252 27.2759C10.6335 27.2752 10.6335 27.2752 10.744 27.2744C10.996 27.3239 11.0882 27.4303 11.2498 27.6249C11.3588 27.8428 11.3038 28.0809 11.2498 28.3124C11.1095 28.4996 11.0343 28.5509 10.8123 28.6249C10.6884 28.6314 10.5643 28.6342 10.4403 28.635C10.3637 28.6356 10.2872 28.6362 10.2083 28.6368C10.1246 28.6371 10.041 28.6374 9.95735 28.6376C9.87149 28.638 9.78563 28.6383 9.69976 28.6387C9.51977 28.6393 9.33977 28.6397 9.15977 28.6399C8.9295 28.6403 8.69926 28.6418 8.46899 28.6436C8.29162 28.6447 8.11426 28.645 7.93688 28.6451C7.85201 28.6453 7.76714 28.6458 7.68227 28.6466C7.56337 28.6477 7.44445 28.6475 7.32554 28.6472C7.25797 28.6474 7.19039 28.6476 7.12076 28.6479C6.86056 28.6153 6.69785 28.5079 6.51155 28.328C6.4028 28.122 6.40958 27.9799 6.43733 27.7499C6.65487 27.3583 6.76595 27.3052 7.20022 27.3004Z" fill="#9E9E9E"/>
<path d="M26.0376 8.71464C26.1175 8.75547 26.1968 8.79727 26.2757 8.83989C26.3187 8.86229 26.3618 8.88468 26.4062 8.90776C26.5434 8.97936 26.6799 9.05219 26.8164 9.12505C26.9064 9.17208 26.9963 9.21904 27.0863 9.26591C27.3074 9.38154 27.5274 9.49916 27.7467 9.61809C27.8322 9.66435 27.9178 9.71033 28.0036 9.75603C28.1252 9.82092 28.2461 9.88688 28.367 9.95317C28.4365 9.99088 28.5059 10.0286 28.5775 10.0674C28.7637 10.197 28.8429 10.2957 28.9375 10.5C28.9784 10.7813 28.9584 10.9024 28.8125 11.1485C28.5905 11.3428 28.4126 11.3824 28.125 11.375C27.9168 11.3025 27.9168 11.3025 27.6992 11.1836C27.6131 11.1376 27.5269 11.0917 27.4407 11.0457C27.3921 11.0192 27.3435 10.9927 27.2934 10.9655C27.0962 10.8596 26.8973 10.7575 26.698 10.6556C26.066 10.3318 26.066 10.3318 25.8081 10.1983C25.7458 10.1661 25.6834 10.134 25.6191 10.1008C25.1069 9.81658 25.1069 9.81658 24.9375 9.56255C24.8916 9.27751 24.9005 9.06135 25.0508 8.81255C25.343 8.54539 25.6862 8.57477 26.0376 8.71464Z" fill="#9E9E9E"/>
<path d="M6.62466 8.6248C6.97081 8.8171 6.97081 8.8171 7.06216 8.9998C7.07925 9.12406 7.07925 9.12406 7.08559 9.26933C7.08865 9.31678 7.09172 9.36423 7.09487 9.41313C7.0461 9.63549 6.91685 9.72397 6.74966 9.8748C6.56841 9.9884 6.56841 9.9884 6.36928 10.0928C6.33339 10.1119 6.2975 10.1309 6.26051 10.1505C6.1452 10.2115 6.02949 10.2717 5.91372 10.3318C5.83417 10.3736 5.75464 10.4154 5.67513 10.4572C5.55744 10.5191 5.43972 10.581 5.32188 10.6426C5.11077 10.7531 4.90121 10.8657 4.6935 10.9825C4.65156 11.0058 4.60961 11.0292 4.5664 11.0533C4.4622 11.1117 4.35835 11.1707 4.25454 11.2298C4.01392 11.333 3.82362 11.3589 3.56215 11.3748C3.3329 11.278 3.17885 11.1584 3.06215 10.9373C3.02888 10.6806 3.03943 10.5419 3.16291 10.313C3.32841 10.1043 3.49265 10.0001 3.72744 9.887C3.76787 9.86652 3.80829 9.84604 3.84995 9.82494C3.97883 9.75989 4.10834 9.69622 4.23794 9.63261C4.36435 9.56943 4.49062 9.50596 4.61687 9.44246C4.70102 9.40027 4.78528 9.35832 4.86967 9.31662C5.08498 9.20982 5.29715 9.09964 5.50658 8.98167C5.56901 8.94686 5.56901 8.94686 5.63271 8.91134C5.71119 8.86726 5.78927 8.82245 5.86682 8.77674C6.12921 8.63007 6.32633 8.59427 6.62466 8.6248Z" fill="#9E9E9E"/>
<path d="M3.93713 1.49976C4.09433 1.5595 4.2254 1.61861 4.37073 1.69898C4.41178 1.72064 4.45283 1.7423 4.49512 1.76462C4.58868 1.814 4.68204 1.86377 4.77524 1.91385C4.95969 2.01173 5.14565 2.10629 5.33191 2.20069C5.47117 2.2717 5.61041 2.34275 5.74963 2.41382C5.81602 2.44743 5.8824 2.48104 5.95079 2.51567C6.91186 3.01172 6.91186 3.01172 7.06213 3.31226C7.09056 3.59656 7.10694 3.79188 6.93323 4.0271C6.71008 4.22176 6.60546 4.23887 6.31213 4.24976C6.14066 4.19162 5.99854 4.13247 5.83948 4.05054C5.79468 4.02848 5.74989 4.00642 5.70374 3.98369C5.1382 3.70122 4.58441 3.39474 4.03221 3.08722C3.92651 3.02855 3.82052 2.97041 3.71425 2.91278C3.66413 2.88549 3.61401 2.8582 3.56238 2.83008C3.51795 2.80608 3.47352 2.78207 3.42775 2.75734C3.25547 2.65291 3.1588 2.55128 3.06213 2.37476C3.02315 2.06288 3.05715 1.87427 3.24963 1.62476C3.48294 1.46922 3.66694 1.46591 3.93713 1.49976Z" fill="#9E9E9E"/>
<path d="M28.6756 1.57831C28.8951 1.75388 28.9287 1.87101 28.9647 2.14862C28.9314 2.42455 28.8191 2.56319 28.6249 2.75018C28.4379 2.87088 28.4379 2.87088 28.2308 2.9743C28.1935 2.99325 28.1562 3.0122 28.1178 3.03173C27.9982 3.09234 27.8779 3.15174 27.7577 3.21112C27.6752 3.25255 27.5927 3.29406 27.5103 3.33566C27.3885 3.39713 27.2667 3.45854 27.1447 3.51962C26.7766 3.70417 26.417 3.90195 26.0589 4.10516C25.8481 4.19966 25.6674 4.23406 25.4374 4.25018C25.2094 4.15174 25.0514 4.03474 24.9374 3.81268C24.8909 3.39416 24.8909 3.39416 25.0231 3.16253C25.2634 2.92508 25.5427 2.79748 25.8436 2.64862C25.9729 2.58307 26.1021 2.5174 26.2313 2.4516C26.2967 2.41841 26.3621 2.38523 26.4294 2.35104C26.7863 2.16688 27.1364 1.97069 27.4868 1.77456C27.5353 1.74759 27.5837 1.72061 27.6336 1.69281C27.6759 1.66911 27.7181 1.64541 27.7616 1.62099C28.0649 1.46484 28.3619 1.43885 28.6756 1.57831Z" fill="#9E9E9E"/>
<path d="M26.1198 5.72527C26.1851 5.72509 26.2504 5.72491 26.3177 5.72473C26.4554 5.7246 26.5931 5.72494 26.7308 5.72573C26.9413 5.72673 27.1518 5.72574 27.3623 5.72454C27.4963 5.72466 27.6303 5.7249 27.7643 5.72527C27.8272 5.72489 27.89 5.72451 27.9547 5.72412C28.3446 5.72804 28.5752 5.76854 28.8637 6.04705C28.9724 6.2531 28.9657 6.39521 28.9379 6.62517C28.7456 6.97133 28.7456 6.97133 28.5629 7.06267C28.4605 7.06958 28.3579 7.07262 28.2553 7.07374C28.1913 7.07454 28.1272 7.07534 28.0612 7.07617C27.957 7.07686 27.957 7.07686 27.8507 7.07757C27.7795 7.07807 27.7083 7.07857 27.6349 7.07909C27.484 7.07996 27.333 7.08063 27.1821 7.08112C26.9512 7.0822 26.7204 7.08494 26.4895 7.0877C26.343 7.08833 26.1965 7.08886 26.05 7.08928C25.9463 7.09093 25.9463 7.09093 25.8406 7.0926C25.3606 7.09124 25.3606 7.09124 25.1145 6.94382C24.9312 6.73308 24.9233 6.58954 24.9289 6.31048C24.9406 6.151 24.961 6.06277 25.0629 5.93767C25.4065 5.71177 25.723 5.72287 26.1198 5.72527Z" fill="#9E9E9E"/>
<path d="M3.853 5.73983C3.91183 5.73923 3.97067 5.73863 4.03129 5.73801C4.12651 5.73761 4.12651 5.73761 4.22365 5.7372C4.28908 5.73685 4.35451 5.73649 4.42193 5.73612C4.56047 5.73553 4.69901 5.73512 4.83755 5.73488C5.04907 5.73428 5.26055 5.73234 5.47206 5.73037C5.6067 5.72996 5.74135 5.72963 5.87599 5.72939C5.93909 5.72862 6.00219 5.72785 6.0672 5.72705C6.40453 5.72812 6.64662 5.74542 6.93727 5.9374C7.08756 6.12185 7.08801 6.33059 7.08278 6.56435C7.05036 6.75884 6.95068 6.86556 6.81227 6.9999C6.65787 7.0771 6.55242 7.072 6.3797 7.07445C6.28363 7.07596 6.28363 7.07596 6.18561 7.07749C5.89256 7.08027 5.59952 7.08284 5.30646 7.08428C5.15181 7.08531 4.99716 7.08702 4.84253 7.08941C4.61978 7.09282 4.3971 7.09419 4.17433 7.09511C4.10525 7.09653 4.03616 7.09795 3.96498 7.09941C3.48432 7.09808 3.48432 7.09808 3.23886 6.91191C3.05736 6.65417 3.0304 6.50607 3.06227 6.1874C3.25642 5.85008 3.4735 5.74296 3.853 5.73983Z" fill="#9E9E9E"/>
<path d="M16.1876 23.8126C16.5363 24.0099 16.5363 24.0099 16.6251 24.1876C16.6598 24.4771 16.6649 24.6864 16.5079 24.9376C16.3033 25.1301 16.1588 25.1459 15.8776 25.1434C15.6794 25.1149 15.5739 25.0155 15.4376 24.8751C15.3291 24.658 15.3375 24.4243 15.3751 24.1876C15.6197 23.8786 15.7957 23.7749 16.1876 23.8126Z" fill="#9E9E9E"/>
</g>
</g>
<defs>
<clipPath id="clip0_157_29">
<rect width="32" height="32" fill="white"/>
</clipPath>
</defs>
</svg>
